<mxfile host="app.diagrams.net" agent="Mozilla/5.0 (Windows NT 10.0; Win64; x64) AppleWebKit/537.36 (KHTML, like Gecko) Chrome/131.0.0.0 Safari/537.36" version="25.0.3">
  <diagram name="第 1 页" id="NmtoEdLJALFyah3FspvZ">
    <mxGraphModel dx="1434" dy="626" grid="1" gridSize="10" guides="1" tooltips="1" connect="1" arrows="1" fold="1" page="1" pageScale="1" pageWidth="827" pageHeight="1169" math="0" shadow="0">
      <root>
        <mxCell id="0" />
        <mxCell id="1" parent="0" />
        <mxCell id="6XnN1BzdmhxzqTy9gNTo-1" value="&lt;span style=&quot;font-size: 20px;&quot;&gt;員工使用案例圖&lt;/span&gt;" style="rounded=1;whiteSpace=wrap;html=1;" vertex="1" parent="1">
          <mxGeometry x="40" y="40" width="200" height="60" as="geometry" />
        </mxCell>
        <mxCell id="6XnN1BzdmhxzqTy9gNTo-13" style="rounded=0;orthogonalLoop=1;jettySize=auto;html=1;endArrow=none;endFill=0;" edge="1" parent="1" source="6XnN1BzdmhxzqTy9gNTo-2" target="6XnN1BzdmhxzqTy9gNTo-12">
          <mxGeometry relative="1" as="geometry" />
        </mxCell>
        <mxCell id="6XnN1BzdmhxzqTy9gNTo-2" value="&lt;font style=&quot;font-size: 20px;&quot;&gt;員工&lt;/font&gt;" style="shape=umlActor;verticalLabelPosition=bottom;verticalAlign=top;html=1;outlineConnect=0;" vertex="1" parent="1">
          <mxGeometry x="120" y="190" width="30" height="60" as="geometry" />
        </mxCell>
        <mxCell id="6XnN1BzdmhxzqTy9gNTo-8" style="rounded=0;orthogonalLoop=1;jettySize=auto;html=1;" edge="1" parent="1" source="6XnN1BzdmhxzqTy9gNTo-3" target="6XnN1BzdmhxzqTy9gNTo-2">
          <mxGeometry relative="1" as="geometry" />
        </mxCell>
        <mxCell id="6XnN1BzdmhxzqTy9gNTo-16" style="rounded=0;orthogonalLoop=1;jettySize=auto;html=1;endArrow=none;endFill=0;" edge="1" parent="1" source="6XnN1BzdmhxzqTy9gNTo-3" target="6XnN1BzdmhxzqTy9gNTo-14">
          <mxGeometry relative="1" as="geometry" />
        </mxCell>
        <mxCell id="6XnN1BzdmhxzqTy9gNTo-17" style="rounded=0;orthogonalLoop=1;jettySize=auto;html=1;endArrow=none;endFill=0;" edge="1" parent="1" source="6XnN1BzdmhxzqTy9gNTo-3" target="6XnN1BzdmhxzqTy9gNTo-15">
          <mxGeometry relative="1" as="geometry" />
        </mxCell>
        <mxCell id="6XnN1BzdmhxzqTy9gNTo-19" style="rounded=0;orthogonalLoop=1;jettySize=auto;html=1;endArrow=none;endFill=0;" edge="1" parent="1" source="6XnN1BzdmhxzqTy9gNTo-3" target="6XnN1BzdmhxzqTy9gNTo-18">
          <mxGeometry relative="1" as="geometry" />
        </mxCell>
        <mxCell id="6XnN1BzdmhxzqTy9gNTo-21" style="rounded=0;orthogonalLoop=1;jettySize=auto;html=1;endArrow=none;endFill=0;" edge="1" parent="1" source="6XnN1BzdmhxzqTy9gNTo-3" target="6XnN1BzdmhxzqTy9gNTo-20">
          <mxGeometry relative="1" as="geometry" />
        </mxCell>
        <mxCell id="6XnN1BzdmhxzqTy9gNTo-3" value="&lt;font style=&quot;font-size: 20px;&quot;&gt;櫃台&lt;/font&gt;" style="shape=umlActor;verticalLabelPosition=bottom;verticalAlign=top;html=1;outlineConnect=0;" vertex="1" parent="1">
          <mxGeometry x="180" y="400" width="30" height="60" as="geometry" />
        </mxCell>
        <mxCell id="6XnN1BzdmhxzqTy9gNTo-9" style="rounded=0;orthogonalLoop=1;jettySize=auto;html=1;" edge="1" parent="1" source="6XnN1BzdmhxzqTy9gNTo-6" target="6XnN1BzdmhxzqTy9gNTo-2">
          <mxGeometry relative="1" as="geometry" />
        </mxCell>
        <mxCell id="6XnN1BzdmhxzqTy9gNTo-6" value="&lt;span style=&quot;font-size: 20px;&quot;&gt;廚師&lt;/span&gt;" style="shape=umlActor;verticalLabelPosition=bottom;verticalAlign=top;html=1;outlineConnect=0;" vertex="1" parent="1">
          <mxGeometry x="70" y="400" width="30" height="60" as="geometry" />
        </mxCell>
        <mxCell id="6XnN1BzdmhxzqTy9gNTo-12" value="&lt;font style=&quot;font-size: 20px;&quot;&gt;取得訂購資料&lt;/font&gt;" style="ellipse;whiteSpace=wrap;html=1;" vertex="1" parent="1">
          <mxGeometry x="320" y="100" width="120" height="80" as="geometry" />
        </mxCell>
        <mxCell id="6XnN1BzdmhxzqTy9gNTo-14" value="&lt;span style=&quot;font-size: 20px;&quot;&gt;取得預訂自取資料&lt;/span&gt;" style="ellipse;whiteSpace=wrap;html=1;" vertex="1" parent="1">
          <mxGeometry x="320" y="200" width="120" height="80" as="geometry" />
        </mxCell>
        <mxCell id="6XnN1BzdmhxzqTy9gNTo-15" value="&lt;span style=&quot;font-size: 20px;&quot;&gt;取得預約店面資料&lt;/span&gt;" style="ellipse;whiteSpace=wrap;html=1;" vertex="1" parent="1">
          <mxGeometry x="320" y="290" width="120" height="80" as="geometry" />
        </mxCell>
        <mxCell id="6XnN1BzdmhxzqTy9gNTo-18" value="&lt;span style=&quot;font-size: 20px;&quot;&gt;取得異動資料&lt;/span&gt;" style="ellipse;whiteSpace=wrap;html=1;" vertex="1" parent="1">
          <mxGeometry x="320" y="380" width="120" height="80" as="geometry" />
        </mxCell>
        <mxCell id="6XnN1BzdmhxzqTy9gNTo-20" value="&lt;span style=&quot;font-size: 20px;&quot;&gt;管理訂購資料&lt;/span&gt;" style="ellipse;whiteSpace=wrap;html=1;" vertex="1" parent="1">
          <mxGeometry x="320" y="470" width="120" height="80" as="geometry" />
        </mxCell>
        <mxCell id="6XnN1BzdmhxzqTy9gNTo-22" value="&lt;span style=&quot;font-size: 20px;&quot;&gt;店內&lt;/span&gt;" style="ellipse;whiteSpace=wrap;html=1;" vertex="1" parent="1">
          <mxGeometry x="480" y="330" width="120" height="80" as="geometry" />
        </mxCell>
        <mxCell id="6XnN1BzdmhxzqTy9gNTo-23" style="rounded=0;orthogonalLoop=1;jettySize=auto;html=1;entryX=0.967;entryY=0.3;entryDx=0;entryDy=0;entryPerimeter=0;" edge="1" parent="1" source="6XnN1BzdmhxzqTy9gNTo-22" target="6XnN1BzdmhxzqTy9gNTo-20">
          <mxGeometry relative="1" as="geometry" />
        </mxCell>
      </root>
    </mxGraphModel>
  </diagram>
</mxfile>
